<?xml version="1.0" encoding="UTF-8"?>
<!DOCTYPE svg PUBLIC "-//W3C//DTD SVG 1.1//EN" "http://www.w3.org/Graphics/SVG/1.1/DTD/svg11.dtd">
<svg xmlns="http://www.w3.org/2000/svg" version="1.1" width="360px" height="360px" style="shape-rendering:geometricPrecision; text-rendering:geometricPrecision; image-rendering:optimizeQuality; fill-rule:evenodd; clip-rule:evenodd" xmlns:xlink="http://www.w3.org/1999/xlink">
<g><path style="opacity:0.974" fill="#ed2025" d="M 160.5,-0.5 C 173.167,-0.5 185.833,-0.5 198.5,-0.5C 276.326,11.4894 327.826,54.8227 353,129.5C 355.769,139.85 357.935,150.184 359.5,160.5C 359.5,173.167 359.5,185.833 359.5,198.5C 347.511,276.326 304.177,327.826 229.5,353C 219.15,355.769 208.816,357.935 198.5,359.5C 185.833,359.5 173.167,359.5 160.5,359.5C 82.6736,347.511 31.1736,304.177 6,229.5C 3.2312,219.15 1.06453,208.816 -0.5,198.5C -0.5,185.833 -0.5,173.167 -0.5,160.5C 11.4894,82.6736 54.8227,31.1736 129.5,6C 139.85,3.2312 150.184,1.06453 160.5,-0.5 Z"/></g>
<g><path style="opacity:1" fill="#fcfbfc" d="M 165.5,8.5 C 229.351,6.01478 280.518,30.0148 319,80.5C 357.181,139.182 360.514,199.849 329,262.5C 291.627,323.778 236.794,352.945 164.5,350C 99.6028,341.998 52.7694,308.831 24,250.5C -2.9979,183.766 6.0021,122.433 51,66.5C 81.9633,32.935 120.13,13.6017 165.5,8.5 Z"/></g>
<g><path style="opacity:1" fill="#313293" d="M 165.5,49.5 C 226.708,46.6741 271.208,72.3408 299,126.5C 317.913,174.432 312.246,219.098 282,260.5C 244.821,302.78 198.654,317.614 143.5,305C 98.3595,290.526 68.5261,260.693 54,215.5C 41.3465,163.479 54.1799,118.979 92.5,82C 109.598,67.7837 128.931,57.7837 150.5,52C 155.681,51.3998 160.681,50.5665 165.5,49.5 Z"/></g>
<g><path style="opacity:1" fill="#f1f1f7" d="M 177.5,58.5 C 179.665,64.7804 181.999,71.1137 184.5,77.5C 182.955,78.4519 181.288,78.7852 179.5,78.5C 179.5,81.5 179.5,84.5 179.5,87.5C 178.167,87.5 176.833,87.5 175.5,87.5C 175.5,84.5 175.5,81.5 175.5,78.5C 174.167,78.5 172.833,78.5 171.5,78.5C 172.493,71.5231 174.493,64.8565 177.5,58.5 Z"/></g>
<g><path style="opacity:1" fill="#eeeef6" d="M 202.5,60.5 C 204.146,67.6589 204.479,74.9922 203.5,82.5C 201.929,81.6906 200.262,81.3573 198.5,81.5C 198.007,83.8056 197.674,86.139 197.5,88.5C 195.365,88.853 194.032,88.0197 193.5,86C 194.068,84.1284 194.735,82.2951 195.5,80.5C 193.887,79.5726 192.221,78.7393 190.5,78C 194.633,72.2247 198.633,66.3913 202.5,60.5 Z"/></g>
<g><path style="opacity:1" fill="#f1f1f8" d="M 152.5,62.5 C 157.161,67.8394 161.495,73.5061 165.5,79.5C 163.726,80.1867 162.059,81.0201 160.5,82C 161.554,84.3822 162.221,86.8822 162.5,89.5C 161.178,89.67 160.011,89.3366 159,88.5C 158.187,86.5643 157.687,84.5643 157.5,82.5C 155.5,82.8333 153.5,83.1667 151.5,83.5C 152.089,76.515 152.422,69.515 152.5,62.5 Z"/></g>
<g><path style="opacity:1" fill="#f3f2f8" d="M 225.5,70.5 C 226.023,77.3693 225.523,84.3693 224,91.5C 222.667,90.8333 221.333,90.1667 220,89.5C 218.585,91.9608 217.085,94.2941 215.5,96.5C 214.5,96.1667 213.833,95.5 213.5,94.5C 216.374,90.8444 216.04,87.6778 212.5,85C 216.657,80.0094 220.991,75.176 225.5,70.5 Z"/></g>
<g><path style="opacity:1" fill="#f3f2f8" d="M 129.5,72.5 C 134.631,77.1302 139.631,81.9635 144.5,87C 139.936,89.04 139.27,92.04 142.5,96C 142.387,97.2798 141.72,98.1131 140.5,98.5C 139.041,96.417 137.708,94.2503 136.5,92C 134.837,91.7351 133.337,92.2351 132,93.5C 130.735,86.5652 129.902,79.5652 129.5,72.5 Z"/></g>
<g><path style="opacity:1" fill="#373795" d="M 295.5,76.5 C 297.783,76.6079 299.783,77.4412 301.5,79C 324.59,101.348 337.924,128.514 341.5,160.5C 342.813,168.1 339.813,172.933 332.5,175C 336.905,174.874 340.571,176.374 343.5,179.5C 342.284,182.25 340.284,183.417 337.5,183C 333.167,180 328.833,177 324.5,174C 330.702,173.695 333.202,170.529 332,164.5C 329.913,163.206 327.746,162.039 325.5,161C 335.096,156.451 334.763,152.784 324.5,150C 330.887,143.248 330.887,136.248 324.5,129C 322.681,128.217 321.348,128.717 320.5,130.5C 325.815,133.403 326.815,137.403 323.5,142.5C 319.607,145.402 316.44,144.736 314,140.5C 313.333,138.167 313.333,135.833 314,133.5C 317.016,130.651 319.85,127.651 322.5,124.5C 320.891,122.06 318.557,120.893 315.5,121C 318.385,119.067 319.052,116.567 317.5,113.5C 315.224,112.787 312.891,112.287 310.5,112C 312.282,109.757 312.782,107.257 312,104.5C 310.204,103.233 308.371,103.233 306.5,104.5C 306.218,101.943 306.051,99.2766 306,96.5C 305.167,95.5 304.333,94.5 303.5,93.5C 301.861,95.8061 299.861,97.8061 297.5,99.5C 294.344,94.5829 290.011,91.0829 284.5,89C 286.017,87.4916 287.851,86.6583 290,86.5C 292.868,87.5202 295.368,89.1868 297.5,91.5C 298.646,90.8551 299.646,90.0217 300.5,89C 297.5,86.8333 294.5,84.6667 291.5,82.5C 293.252,80.7541 294.585,78.7541 295.5,76.5 Z"/></g>
<g><path style="opacity:1" fill="#393996" d="M 63.5,82.5 C 64.675,82.281 65.675,82.6143 66.5,83.5C 64.221,86.1065 63.8876,88.9398 65.5,92C 65.3687,94.2527 64.8687,96.4194 64,98.5C 60.5489,101.956 57.8822,105.956 56,110.5C 54.5596,109.07 54.2263,107.403 55,105.5C 57.4033,101.94 59.5699,98.2734 61.5,94.5C 60.6372,92.1282 59.4705,92.1282 58,94.5C 54.3333,100.167 50.6667,105.833 47,111.5C 47.1289,114.873 47.4622,118.206 48,121.5C 45.3333,125.5 42,128.833 38,131.5C 34.7766,140.619 32.4433,149.952 31,159.5C 30.6039,161.96 29.4372,163.96 27.5,165.5C 29.1614,168.092 31.328,168.759 34,167.5C 34.202,162.011 35.202,156.678 37,151.5C 37.7948,158.218 37.6282,164.884 36.5,171.5C 34.9255,172.631 33.2588,172.798 31.5,172C 26.4455,168.806 21.1122,166.139 15.5,164C 17.8333,163.667 20.1667,163.333 22.5,163C 24.0368,161.89 24.7035,160.39 24.5,158.5C 19.6104,159.113 16.9438,156.946 16.5,152C 17.8992,147.018 21.2325,145.185 26.5,146.5C 26.7965,143.276 26.1298,140.276 24.5,137.5C 31.368,135.56 32.368,131.727 27.5,126C 31.4267,124.788 35.4267,123.788 39.5,123C 43.2047,120.624 43.2047,117.958 39.5,115C 36.5,114.667 33.5,114.333 30.5,114C 30.0426,113.586 29.7093,113.086 29.5,112.5C 32.8725,110.57 36.5391,109.404 40.5,109C 39.5467,107.045 38.2134,105.378 36.5,104C 39.1194,104.083 41.786,104.25 44.5,104.5C 44.6567,103.127 44.49,101.793 44,100.5C 40.9987,98.1539 39.9987,95.1539 41,91.5C 41.956,90.1059 43.2894,89.4393 45,89.5C 47.137,90.0767 49.3037,90.41 51.5,90.5C 51.528,88.4176 50.8613,86.5843 49.5,85C 53.5,84.6667 57.5,84.3333 61.5,84C 62.4158,83.7216 63.0825,83.2216 63.5,82.5 Z"/></g>
<g><path style="opacity:1" fill="#dfdeee" d="M 44.5,92.5 C 49.394,93.5396 49.7274,95.5396 45.5,98.5C 43.261,96.8669 42.9277,94.8669 44.5,92.5 Z"/></g>
<g><path style="opacity:1" fill="#dad9eb" d="M 165.5,99.5 C 169.976,99.6428 170.643,101.309 167.5,104.5C 165.783,103.332 165.116,101.665 165.5,99.5 Z"/></g>
<g><path style="opacity:1" fill="#fafafc" d="M 244.5,240.5 C 244.5,240.833 244.5,241.167 244.5,241.5C 243.802,243.667 242.469,245.5 240.5,247C 237.167,247.333 233.833,247.667 230.5,248C 228.924,252.718 226.59,257.052 223.5,261C 221.305,262.373 218.971,262.706 216.5,262C 215.446,260.612 215.28,259.112 216,257.5C 219.09,255.549 221.59,253.049 223.5,250C 221.254,244.84 218.254,240.174 214.5,236C 210.201,235.683 206.535,234.017 203.5,231C 199,225.833 194.5,220.667 190,215.5C 194.564,233.363 200.064,251.03 206.5,268.5C 205.57,273.686 203.07,274.686 199,271.5C 196.3,259.032 193.133,246.699 189.5,234.5C 189.167,234.833 188.833,235.167 188.5,235.5C 191.72,248.549 194.387,261.716 196.5,275C 197.323,280.275 195.323,282.109 190.5,280.5C 188.107,265.912 186.107,251.245 184.5,236.5C 184.167,238.333 183.833,240.167 183.5,242C 185.202,256.466 186.035,270.966 186,285.5C 183.105,290.66 180.105,290.66 177,285.5C 176.95,271.66 177.45,257.827 178.5,244C 178.167,241.5 177.833,239 177.5,236.5C 175.923,250.848 174.423,265.182 173,279.5C 167.808,284.159 164.975,282.992 164.5,276C 166.738,262.138 169.738,248.472 173.5,235C 173.167,234.833 172.833,234.667 172.5,234.5C 168.361,247.717 164.528,261.05 161,274.5C 155.959,277.834 153.459,276.334 153.5,270C 159.403,251.958 165.903,234.125 173,216.5C 173.781,215.056 173.614,213.723 172.5,212.5C 167.677,217.492 163.01,222.658 158.5,228C 154.184,231.655 149.184,233.321 143.5,233C 139.072,237.688 136.072,243.188 134.5,249.5C 136.801,252.81 139.134,256.143 141.5,259.5C 138.885,265.03 135.385,265.697 131,261.5C 129.847,258.289 129.18,254.956 129,251.5C 128.167,250.667 127.333,249.833 126.5,249C 123.167,248.667 119.833,248.333 116.5,248C 114.722,245.865 114.055,243.365 114.5,240.5C 118.525,241.02 122.191,242.353 125.5,244.5C 130.899,242.924 134.066,239.257 135,233.5C 135.417,229.16 135.251,224.827 134.5,220.5C 137.991,206.829 143.991,194.329 152.5,183C 155.742,182.014 158.408,182.848 160.5,185.5C 164.446,191.057 167.613,197.057 170,203.5C 169.381,193.601 165.047,185.601 157,179.5C 149.539,165.755 149.873,152.089 158,138.5C 162.664,132.509 166.83,126.176 170.5,119.5C 171.365,118.417 172.365,118.251 173.5,119C 178.471,123.27 184.137,124.77 190.5,123.5C 183.072,122.453 176.738,119.286 171.5,114C 169.527,113.505 167.527,113.338 165.5,113.5C 166.919,112.549 168.585,112.216 170.5,112.5C 170.5,111.5 170.5,110.5 170.5,109.5C 174.928,113.054 179.928,114.887 185.5,115C 186.833,114.333 186.833,113.667 185.5,113C 184.167,112.667 182.833,112.333 181.5,112C 182.833,109.667 184.167,107.333 185.5,105C 181.5,104.667 177.5,104.333 173.5,104C 170.007,102.522 169.674,100.522 172.5,98C 177.368,96.8141 181.702,97.8141 185.5,101C 202.154,117.797 210.32,137.964 210,161.5C 209.333,163.5 208.667,165.5 208,167.5C 202.081,177.002 196.414,186.669 191,196.5C 189.75,199.077 189.416,201.743 190,204.5C 193.038,196.038 197.205,188.205 202.5,181C 204.167,180.333 205.833,180.333 207.5,181C 221.315,194.396 225.648,210.396 220.5,229C 223.085,241.128 229.752,244.295 240.5,238.5C 241.867,239.225 243.2,239.892 244.5,240.5 Z"/></g>
<g><path style="opacity:1" fill="#ecd541" d="M 170.5,109.5 C 170.5,110.5 170.5,111.5 170.5,112.5C 168.585,112.216 166.919,112.549 165.5,113.5C 163.72,114.99 163.054,116.99 163.5,119.5C 157.546,118.305 156.046,114.972 159,109.5C 163.085,104.472 166.918,104.472 170.5,109.5 Z"/></g>
<g><path style="opacity:1" fill="#d6d5e9" d="M 174.5,105.5 C 176.924,105.192 179.257,105.526 181.5,106.5C 178.533,110.622 176.2,110.289 174.5,105.5 Z"/></g>
<g><path style="opacity:1" fill="#f7f7fb" d="M 243.5,106.5 C 266.849,107.942 280.349,120.275 284,143.5C 285.535,167.113 288.868,190.446 294,213.5C 295.467,216.079 296.634,218.746 297.5,221.5C 288.756,220.927 283.589,216.261 282,207.5C 279.51,187.475 276.843,167.475 274,147.5C 272.327,133.285 264.827,123.785 251.5,119C 243.325,117.186 235.991,118.853 229.5,124C 222.92,130.011 217.42,136.844 213,144.5C 211.578,139.311 210.078,134.144 208.5,129C 217.094,123.413 225.427,117.413 233.5,111C 236.893,109.38 240.226,107.88 243.5,106.5 Z"/></g>
<g><path style="opacity:1" fill="#f8f8fb" d="M 109.5,109.5 C 114.248,109.275 118.915,109.775 123.5,111C 134.969,118.304 146.302,125.804 157.5,133.5C 155.16,138.202 152.827,142.869 150.5,147.5C 143.896,135.728 134.563,126.894 122.5,121C 110.643,120.512 101.143,125.012 94,134.5C 91.9409,138.677 90.2742,143.01 89,147.5C 85.6755,166.37 83.3422,185.37 82,204.5C 80.9936,210.195 78.827,215.361 75.5,220C 72.4388,222.035 69.1055,223.201 65.5,223.5C 68.915,215.186 71.415,206.519 73,197.5C 75.5892,182.276 77.2558,166.942 78,151.5C 79.6225,130.496 90.1225,116.496 109.5,109.5 Z"/></g>
<g><path style="opacity:1" fill="#41419b" d="M 21.5,121.5 C 23.3464,121.222 24.6798,121.889 25.5,123.5C 24.6798,125.111 23.3464,125.778 21.5,125.5C 21.5,124.167 21.5,122.833 21.5,121.5 Z"/></g>
<g><path style="opacity:1" fill="#f6f6fa" d="M 238.5,122.5 C 252.303,119.984 262.136,124.984 268,137.5C 269.585,142.085 270.918,146.752 272,151.5C 274.215,170.171 276.382,188.838 278.5,207.5C 274.91,207.456 272.41,205.789 271,202.5C 269.384,184.053 267.051,165.72 264,147.5C 263.333,146.833 262.667,146.167 262,145.5C 264.041,161.094 265.874,176.761 267.5,192.5C 267.167,194.5 266.833,196.5 266.5,198.5C 264.517,197.018 262.684,195.351 261,193.5C 259.932,177.72 258.099,162.053 255.5,146.5C 254.5,146.5 253.5,146.5 252.5,146.5C 255.289,160.361 256.956,174.361 257.5,188.5C 254.737,188.256 252.571,186.923 251,184.5C 249.968,174.861 249.301,165.194 249,155.5C 248.884,152.068 247.717,149.068 245.5,146.5C 245.167,147.167 244.833,147.833 244.5,148.5C 246.396,157.751 246.896,167.085 246,176.5C 240.017,167.857 232.184,161.357 222.5,157C 219.518,156.502 216.518,156.335 213.5,156.5C 215.844,140.525 224.177,129.192 238.5,122.5 Z"/></g>
<g><path style="opacity:1" fill="#f8f8fb" d="M 110.5,124.5 C 132.403,124.73 145.07,135.73 148.5,157.5C 142.307,157.62 136.64,159.453 131.5,163C 126.018,167.315 121.018,172.149 116.5,177.5C 115.346,168.721 116.013,160.055 118.5,151.5C 118.267,150.068 117.6,149.568 116.5,150C 114.996,151.491 114.163,153.324 114,155.5C 113.106,165.827 112.273,176.16 111.5,186.5C 109.851,187.648 108.351,188.981 107,190.5C 105.811,177.279 106.977,164.279 110.5,151.5C 109.876,148.254 108.709,147.921 107,150.5C 104.613,165.418 102.947,180.418 102,195.5C 100.316,197.351 98.4829,199.018 96.5,200.5C 96.1798,183.359 97.8465,166.359 101.5,149.5C 101.267,148.068 100.6,147.568 99.5,148C 97.7906,152.672 96.6239,157.505 96,162.5C 94.4121,176.809 93.0788,191.142 92,205.5C 90.2609,207.741 88.0942,209.408 85.5,210.5C 85.1667,209 84.8333,207.5 84.5,206C 87.1794,186.862 89.6794,167.695 92,148.5C 94.1482,137.117 100.315,129.117 110.5,124.5 Z"/></g>
<g><path style="opacity:1" fill="#43429b" d="M 17.5,133.5 C 18.8333,133.5 20.1667,133.5 21.5,133.5C 21.7778,135.346 21.1112,136.68 19.5,137.5C 17.8888,136.68 17.2222,135.346 17.5,133.5 Z"/></g>
<g><path style="opacity:1" fill="#f1f0f7" d="M 317.5,134.5 C 321.35,134.701 322.35,136.534 320.5,140C 316.537,140.118 315.537,138.284 317.5,134.5 Z"/></g>
<g><path style="opacity:1" fill="#eeeef6" d="M 21.5,148.5 C 22.8333,148.5 24.1667,148.5 25.5,148.5C 25.3259,150.861 24.9926,153.194 24.5,155.5C 19.1605,155.177 18.1605,152.843 21.5,148.5 Z"/></g>
<g><path style="opacity:1" fill="#383896" d="M 26.5,178.5 C 28.1667,178.5 29.8333,178.5 31.5,178.5C 33.9042,191.782 37.4042,204.782 42,217.5C 43.8865,221.44 46.3865,224.94 49.5,228C 51.4727,228.495 53.4727,228.662 55.5,228.5C 53.8005,234.342 50.1338,235.842 44.5,233C 35.1528,221.804 29.4861,208.971 27.5,194.5C 21.943,194.9 18.2763,192.567 16.5,187.5C 18.6459,183.107 21.9792,180.107 26.5,178.5 Z"/></g>
<g><path style="opacity:1" fill="#48469e" d="M 323.5,178.5 C 324.5,178.5 325.5,178.5 326.5,178.5C 326.884,180.665 326.217,182.332 324.5,183.5C 322.296,182.218 321.962,180.551 323.5,178.5 Z"/></g>
<g><path style="opacity:1" fill="#e1e0ef" d="M 22.5,184.5 C 25.7794,185.031 27.1128,187.031 26.5,190.5C 22.267,190.285 20.9336,188.285 22.5,184.5 Z"/></g>
<g><path style="opacity:1" fill="#403f9a" d="M 321.5,186.5 C 322.833,186.5 324.167,186.5 325.5,186.5C 325.5,187.833 325.5,189.167 325.5,190.5C 322.5,190.833 321.167,189.5 321.5,186.5 Z"/></g>
<g><path style="opacity:1" fill="#363695" d="M 331.5,187.5 C 333.861,187.674 336.194,188.007 338.5,188.5C 335.254,200.333 331.421,212 327,223.5C 324.75,232.037 319.583,234.871 311.5,232C 307.336,228.574 307.503,227.074 312,227.5C 315.804,227.031 318.471,225.031 320,221.5C 324.54,210.38 328.373,199.047 331.5,187.5 Z"/></g>
<g><path style="opacity:1" fill="#f3f3f8" d="M 282.5,225.5 C 284.564,225.762 285.897,226.929 286.5,229C 250.281,255.394 213.948,281.561 177.5,307.5C 141.346,282.917 105.679,257.583 70.5,231.5C 71.624,230.086 72.624,228.586 73.5,227C 74.1667,226.333 74.8333,226.333 75.5,227C 109.323,252.078 143.323,276.911 177.5,301.5C 213.098,276.88 248.098,251.546 282.5,225.5 Z"/></g>
<g><path style="opacity:1" fill="#ddc845" d="M 232.5,230.5 C 233.552,230.351 234.552,230.517 235.5,231C 234.24,233.268 232.906,235.434 231.5,237.5C 230.154,234.9 230.488,232.567 232.5,230.5 Z"/></g>
<g><path style="opacity:1" fill="#e0ca45" d="M 110.5,232.5 C 113.599,232.092 115.933,233.259 117.5,236C 116.975,236.692 116.308,237.192 115.5,237.5C 113.869,235.703 111.869,234.536 109.5,234C 110.056,233.617 110.389,233.117 110.5,232.5 Z"/></g>
<g><path style="opacity:1" fill="#e3cd43" d="M 120.5,232.5 C 122.153,231.201 123.653,231.534 125,233.5C 125.798,235.259 125.631,236.926 124.5,238.5C 123.168,236.466 121.834,234.466 120.5,232.5 Z"/></g>
<g><path style="opacity:1" fill="#e3cd43" d="M 241.5,231.5 C 243.429,231.231 245.095,231.731 246.5,233C 244.131,233.536 242.131,234.703 240.5,236.5C 239.348,234.603 239.681,232.936 241.5,231.5 Z"/></g>
<g><path style="opacity:1" fill="#dfc948" d="M 244.5,241.5 C 244.5,241.167 244.5,240.833 244.5,240.5C 246.76,237.895 249.094,238.062 251.5,241C 249.19,241.497 246.857,241.663 244.5,241.5 Z"/></g>
<g><path style="opacity:1" fill="#f0d93b" d="M 106.5,239.5 C 108.167,239.5 109.833,239.5 111.5,239.5C 111.5,240.5 111.5,241.5 111.5,242.5C 109.436,242.313 107.436,241.813 105.5,241C 106.056,240.617 106.389,240.117 106.5,239.5 Z"/></g>
<g><path style="opacity:1" fill="#e2cc43" d="M 213.5,263.5 C 214.978,263.238 216.311,263.571 217.5,264.5C 215.82,265.769 214.653,267.436 214,269.5C 212.2,267.635 212.034,265.635 213.5,263.5 Z"/></g>
<g><path style="opacity:1" fill="#e9d23e" d="M 138.5,264.5 C 143.453,264.322 144.619,266.322 142,270.5C 141.373,268.073 140.206,266.073 138.5,264.5 Z"/></g>
<g><path style="opacity:1" fill="#373795" d="M 86.5,278.5 C 92.0946,282.59 97.2613,287.256 102,292.5C 102.684,299.131 99.8508,303.465 93.5,305.5C 89.0544,304.387 85.3878,302.054 82.5,298.5C 79.6443,300.522 77.311,303.022 75.5,306C 72.7202,306.269 70.5536,305.102 69,302.5C 68.3333,301.5 68.3333,300.5 69,299.5C 75.3179,292.839 81.1513,285.839 86.5,278.5 Z"/></g>
<g><path style="opacity:1" fill="#353695" d="M 272.5,279.5 C 273.933,280.833 275.267,282.333 276.5,284C 272.39,286.809 268.557,289.975 265,293.5C 264.691,295.391 265.525,296.725 267.5,297.5C 271.142,295.025 274.642,292.358 278,289.5C 279.167,290.667 280.333,291.833 281.5,293C 277.644,296.1 273.977,299.433 270.5,303C 272,304.5 273.5,306 275,307.5C 278.69,304.309 282.523,301.309 286.5,298.5C 288.063,299.945 289.396,301.611 290.5,303.5C 284.738,308.887 278.405,313.554 271.5,317.5C 265.148,309.975 259.148,302.142 253.5,294C 259.902,289.146 266.235,284.313 272.5,279.5 Z"/></g>
<g><path style="opacity:1" fill="#f4f4f9" d="M 88.5,288.5 C 93.185,289.763 94.5184,292.596 92.5,297C 89.2079,297.896 86.8745,296.729 85.5,293.5C 86.9524,292.06 87.9524,290.394 88.5,288.5 Z"/></g>
<g><path style="opacity:1" fill="#343494" d="M 117.5,304.5 C 132.616,303.776 139.116,310.776 137,325.5C 133.89,334.307 127.724,337.807 118.5,336C 110.69,333.638 107.023,328.304 107.5,320C 107.963,312.892 111.296,307.725 117.5,304.5 Z"/></g>
<g><path style="opacity:1" fill="#373795" d="M 233.5,304.5 C 238.38,304.233 242.38,305.9 245.5,309.5C 244.167,311.5 242.5,313.167 240.5,314.5C 234.355,309.906 230.688,311.573 229.5,319.5C 229.883,326.056 233.216,329.222 239.5,329C 241.747,327.005 242.747,324.505 242.5,321.5C 245.167,321.5 247.833,321.5 250.5,321.5C 248.73,334.738 241.396,339.238 228.5,335C 216.388,322.257 218.054,312.09 233.5,304.5 Z"/></g>
<g><path style="opacity:1" fill="#f7f7fb" d="M 120.5,311.5 C 125.963,311.132 128.63,313.632 128.5,319C 128.666,324.667 125.999,328.167 120.5,329.5C 116.688,328.056 115.021,325.222 115.5,321C 115.65,317.021 117.317,313.854 120.5,311.5 Z"/></g>
<g><path style="opacity:1" fill="#353594" d="M 154.5,315.5 C 157.833,315.5 161.167,315.5 164.5,315.5C 163.965,323.512 163.299,331.512 162.5,339.5C 166.842,339.739 171.176,340.073 175.5,340.5C 175.5,342.833 175.5,345.167 175.5,347.5C 167.846,346.732 160.18,346.065 152.5,345.5C 153.347,335.513 154.014,325.513 154.5,315.5 Z"/></g>
<g><path style="opacity:1" fill="#343494" d="M 199.5,314.5 C 200.5,314.5 201.5,314.5 202.5,314.5C 203.367,324.838 204.367,335.172 205.5,345.5C 202.167,345.5 198.833,345.5 195.5,345.5C 194.833,335.5 194.167,325.5 193.5,315.5C 195.735,315.795 197.735,315.461 199.5,314.5 Z"/></g>
</svg>
